<svg version="1.2" xmlns="http://www.w3.org/2000/svg" viewBox="0 0 38 38" width="38" height="38">
	<title>bd3126936ba219de180cb190698e4797-svg</title>
	<style>
		.s0 { fill: #ffffff } 
	</style>
	<g id="Layer">
	</g>
	<path id="Layer" fill-rule="evenodd" class="s0" d="m24.7 30h-11.4c-4.4 0-6.9-4.9-4.1-8.2l6.3-7.8c1 0.7 2.2 1.2 3.5 1.2 1.3 0 2.5-0.5 3.5-1.2l6.3 7.8c2.8 3.3 0.3 8.2-4.1 8.2zm-1.1-9.3l-2.7-0.3-1.2-2.3c-0.2-0.6-1.2-0.6-1.4 0l-1.2 2.3-2.7 0.4c-0.7 0.1-0.9 0.9-0.4 1.3l1.9 1.8-0.5 2.5c-0.1 0.7 0.6 1.2 1.2 0.8l2.4-1.2 2.3 1.2c0.7 0.4 1.4-0.1 1.3-0.8l-0.5-2.5 2-1.8c0.5-0.5 0.2-1.3-0.5-1.4z"/>
	<path id="Layer" class="s0" d="m19 13.5c1.3 0 2.5-0.6 3.2-1.6 1.2-1.6 1.6-3.2 0.9-3.7-0.4-0.2-1 0-1.7 0.5-0.5 0.3-1.1 0.1-1.3-0.4-0.2-0.8-0.6-1.3-1.1-1.3-0.5 0-0.9 0.5-1.2 1.3-0.1 0.5-0.7 0.7-1.2 0.4-0.7-0.5-1.3-0.7-1.7-0.5-0.7 0.5-0.3 2.1 0.8 3.7 0.8 1 2 1.6 3.3 1.6z"/>
</svg>