<svg width="121" height="40" viewBox="0 0 121 40" fill="none" xmlns="http://www.w3.org/2000/svg">
<rect x="1" y="0.5" width="119" height="39" rx="5.5" fill="black"/>
<rect x="1" y="0.5" width="119" height="39" rx="5.5" stroke="#A6A6A6"/>
<path d="M18.3051 19.4617L8.58984 30.0059C8.59076 30.0078 8.59076 30.0106 8.59167 30.0125C8.89005 31.1574 9.91203 32 11.1256 32C11.6111 32 12.0664 31.8656 12.457 31.6305L12.488 31.6118L23.4232 25.1593L18.3051 19.4617Z" fill="#EA4335"/>
<path d="M28.1332 17.6662L28.124 17.6597L23.4029 14.8612L18.084 19.7013L23.422 25.1582L28.1177 22.3878C28.9407 21.9324 29.5001 21.045 29.5001 20.0223C29.5001 19.0052 28.9489 18.1225 28.1332 17.6662Z" fill="#FBBC04"/>
<path d="M8.58942 9.99325C8.53102 10.2135 8.5 10.4449 8.5 10.6838V29.3163C8.5 29.5552 8.53102 29.7866 8.59034 30.0059L18.6386 19.7313L8.58942 9.99325Z" fill="#4285F4"/>
<path d="M18.3762 20L23.404 14.8594L12.4815 8.3836C12.0846 8.14005 11.6211 8.00009 11.1256 8.00009C9.91197 8.00009 8.88816 8.84456 8.58978 9.99043C8.58978 9.99136 8.58887 9.9923 8.58887 9.99323L18.3762 20Z" fill="#34A853"/>
<path d="M44.11 11.71C44.11 12.71 43.8133 13.5067 43.22 14.1C42.5533 14.8067 41.6767 15.16 40.59 15.16C39.55 15.16 38.67 14.8 37.95 14.08C37.23 13.36 36.87 12.4733 36.87 11.42C36.87 10.3667 37.23 9.48 37.95 8.76C38.67 8.04 39.55 7.68 40.59 7.68C41.1167 7.68 41.6133 7.77333 42.08 7.96C42.5467 8.14667 42.93 8.41 43.23 8.75L42.57 9.41C42.35 9.14333 42.0633 8.93667 41.71 8.79C41.3633 8.63667 40.99 8.56 40.59 8.56C39.81 8.56 39.15 8.83 38.61 9.37C38.0767 9.91667 37.81 10.6 37.81 11.42C37.81 12.24 38.0767 12.9233 38.61 13.47C39.15 14.01 39.81 14.28 40.59 14.28C41.3033 14.28 41.8967 14.08 42.37 13.68C42.8433 13.28 43.1167 12.73 43.19 12.03H40.59V11.17H44.06C44.0933 11.3567 44.11 11.5367 44.11 11.71ZM49.4078 7.84V8.72H46.1478V10.99H49.0878V11.85H46.1478V14.12H49.4078V15H45.2278V7.84H49.4078ZM53.0877 8.72V15H52.1677V8.72H50.1677V7.84H55.0877V8.72H53.0877ZM59.1654 15H58.2454V7.84H59.1654V15ZM63.0487 8.72V15H62.1287V8.72H60.1287V7.84H65.0487V8.72H63.0487ZM75.021 11.42C75.021 12.48 74.6677 13.3667 73.961 14.08C73.2477 14.8 72.3743 15.16 71.341 15.16C70.301 15.16 69.4277 14.8 68.721 14.08C68.0143 13.3667 67.661 12.48 67.661 11.42C67.661 10.36 68.0143 9.47333 68.721 8.76C69.4277 8.04 70.301 7.68 71.341 7.68C72.381 7.68 73.2543 8.04333 73.961 8.77C74.6677 9.48333 75.021 10.3667 75.021 11.42ZM68.601 11.42C68.601 12.2467 68.861 12.93 69.381 13.47C69.9077 14.01 70.561 14.28 71.341 14.28C72.121 14.28 72.771 14.01 73.291 13.47C73.8177 12.9367 74.081 12.2533 74.081 11.42C74.081 10.5867 73.8177 9.90333 73.291 9.37C72.771 8.83 72.121 8.56 71.341 8.56C70.561 8.56 69.9077 8.83 69.381 9.37C68.861 9.91 68.601 10.5933 68.601 11.42ZM77.0267 15H76.1067V7.84H77.2267L80.7067 13.41H80.7467L80.7067 12.03V7.84H81.6267V15H80.6667L77.0267 9.16H76.9867L77.0267 10.54V15Z" fill="white"/>
<path d="M94.0181 31.4097H95.6469V20.3981H94.0181V31.4097ZM108.689 24.3646L106.822 29.1388H106.766L104.828 24.3646H103.073L105.979 31.0371L104.323 34.749H106.021L110.5 24.3646H108.689ZM99.4519 30.1588C98.9176 30.1588 98.1739 29.8902 98.1739 29.2234C98.1739 28.3742 99.1001 28.0483 99.9005 28.0483C100.616 28.0483 100.954 28.2042 101.389 28.4165C101.262 29.4365 100.392 30.1588 99.4519 30.1588ZM99.6483 24.1241C98.469 24.1241 97.2469 24.6482 96.7424 25.8101L98.1879 26.4188C98.4969 25.8101 99.0721 25.611 99.6762 25.611C100.519 25.611 101.375 26.121 101.389 27.0283V27.1411C101.094 26.971 100.463 26.7165 99.6902 26.7165C98.132 26.7165 96.5451 27.5806 96.5451 29.1952C96.5451 30.6689 97.823 31.6184 99.2546 31.6184C100.35 31.6184 100.954 31.1225 101.333 30.5411H101.389V31.3912H102.961V27.1692C102.961 25.2146 101.515 24.1241 99.6483 24.1241ZM89.5821 25.7053H87.2655V21.9308H89.5821C90.7998 21.9308 91.4911 22.9482 91.4911 23.8176C91.4911 24.6711 90.7998 25.7053 89.5821 25.7053ZM89.5402 20.3981H85.6375V31.4097H87.2655V27.2379H89.5402C91.3453 27.2379 93.1199 25.9184 93.1199 23.8176C93.1199 21.7168 91.3453 20.3981 89.5402 20.3981ZM68.2583 30.1606C67.1332 30.1606 66.1913 29.2102 66.1913 27.9047C66.1913 26.5852 67.1332 25.6198 68.2583 25.6198C69.3695 25.6198 70.2406 26.5852 70.2406 27.9047C70.2406 29.2102 69.3695 30.1606 68.2583 30.1606ZM70.1289 24.9812H70.0722C69.7064 24.5417 69.0038 24.1444 68.1178 24.1444C66.2611 24.1444 64.5599 25.7898 64.5599 27.9047C64.5599 30.0047 66.2611 31.6369 68.1178 31.6369C69.0038 31.6369 69.7064 31.2396 70.0722 30.7851H70.1289V31.3251C70.1289 32.7582 69.3695 33.5246 68.1457 33.5246C67.1471 33.5246 66.5282 32.8005 66.2751 32.1901L64.8549 32.7864C65.2626 33.78 66.3458 35 68.1457 35C70.0582 35 71.6757 33.8646 71.6757 31.0978V24.3708H70.1289V24.9812ZM72.8008 31.4097H74.4323V20.3973H72.8008V31.4097ZM76.8362 27.777C76.7943 26.3298 77.9474 25.5916 78.7766 25.5916C79.4243 25.5916 79.9725 25.9176 80.1549 26.3862L76.8362 27.777ZM81.8989 26.528C81.5899 25.6912 80.6472 24.1444 78.7208 24.1444C76.8083 24.1444 75.2196 25.6621 75.2196 27.8907C75.2196 29.9906 76.7943 31.6369 78.9032 31.6369C80.6053 31.6369 81.5899 30.5869 81.9976 29.9765L80.7319 29.1247C80.3103 29.7493 79.7333 30.1606 78.9032 30.1606C78.0739 30.1606 77.483 29.7774 77.1033 29.0261L82.0674 26.9534L81.8989 26.528ZM42.3501 25.2939V26.883H46.1184C46.0058 27.777 45.7107 28.4297 45.2612 28.8834C44.7121 29.4374 43.8541 30.0479 42.3501 30.0479C40.0291 30.0479 38.2152 28.1602 38.2152 25.8189C38.2152 23.4767 40.0291 21.5899 42.3501 21.5899C43.6018 21.5899 44.5157 22.0867 45.1905 22.7254L46.3017 21.604C45.3589 20.6959 44.1081 20 42.3501 20C39.1719 20 36.5 22.6117 36.5 25.8189C36.5 29.0261 39.1719 31.6369 42.3501 31.6369C44.0653 31.6369 45.3589 31.0688 46.3715 30.0047C47.4129 28.9547 47.7358 27.4793 47.7358 26.2866C47.7358 25.9176 47.7079 25.5775 47.6512 25.2939H42.3501ZM52.0208 30.1606C50.8957 30.1606 49.925 29.2243 49.925 27.8907C49.925 26.5421 50.8957 25.6198 52.0208 25.6198C53.1451 25.6198 54.1158 26.5421 54.1158 27.8907C54.1158 29.2243 53.1451 30.1606 52.0208 30.1606ZM52.0208 24.1444C49.9669 24.1444 48.2936 25.7194 48.2936 27.8907C48.2936 30.0479 49.9669 31.6369 52.0208 31.6369C54.0739 31.6369 55.7472 30.0479 55.7472 27.8907C55.7472 25.7194 54.0739 24.1444 52.0208 24.1444ZM60.15 30.1606C59.0249 30.1606 58.0542 29.2243 58.0542 27.8907C58.0542 26.5421 59.0249 25.6198 60.15 25.6198C61.2752 25.6198 62.245 26.5421 62.245 27.8907C62.245 29.2243 61.2752 30.1606 60.15 30.1606ZM60.15 24.1444C58.097 24.1444 56.4237 25.7194 56.4237 27.8907C56.4237 30.0479 58.097 31.6369 60.15 31.6369C62.2031 31.6369 63.8764 30.0479 63.8764 27.8907C63.8764 25.7194 62.2031 24.1444 60.15 24.1444Z" fill="white"/>
</svg>
