<svg width="248" height="387" viewBox="0 0 248 387" fill="none" xmlns="http://www.w3.org/2000/svg">
<path d="M67.0895 229C67.0895 229 -70.0726 265.001 66.6563 287.928C66.9281 287.973 67.228 288 67.5036 288H180" stroke="#24A2B7" stroke-width="12" stroke-miterlimit="10"/>
<path d="M180.91 229C180.91 229 318.073 265.001 181.344 287.928C181.072 287.973 180.772 288 180.496 288H68" stroke="#24A2B7" stroke-width="12" stroke-miterlimit="10"/>
<path d="M68 256.223V210V333" stroke="white" stroke-width="12" stroke-miterlimit="10"/>
<path d="M180 210V333" stroke="white" stroke-width="12" stroke-miterlimit="10"/>
<path d="M179 191V132C179 129.239 176.761 127 174 127H126" stroke="white" stroke-width="12" stroke-miterlimit="10"/>
<path d="M177 194L157.276 158.568C156.393 156.983 154.721 156 152.907 156H122" stroke="#24A2B7" stroke-width="12" stroke-miterlimit="10"/>
<path d="M68 189V132C68 129.239 70.2386 127 73 127H150" stroke="white" stroke-width="12" stroke-miterlimit="10"/>
<path d="M71 194L89.4299 158.687C90.2917 157.035 91.9999 156 93.8625 156L138 156" stroke="#24A2B7" stroke-width="12" stroke-miterlimit="10"/>
<path d="M68.2144 245.913L181.294 245.674" stroke="white" stroke-width="12" stroke-miterlimit="10"/>
<path d="M229 248V164.338C229 160.345 224.551 157.963 221.228 160.176L128.927 221.652C127.297 222.738 125.183 222.772 123.519 221.739L25.6365 160.996C22.3057 158.929 18 161.324 18 165.244V248" stroke="#24A2B7" stroke-width="12" stroke-miterlimit="10" stroke-linecap="round"/>
<path d="M69.1566 325H173.497C176.448 325 178.71 327.525 178.128 330.417C175.3 344.469 164.099 381 124.078 381C74.5279 381 68 325 68 325" stroke="white" stroke-width="12" stroke-miterlimit="10"/>
<path d="M27 280V344.812C27 348.774 31.3885 351.162 34.7153 349.01L123.98 291.279C125.693 290.171 127.907 290.215 129.575 291.39L210.772 348.588C214.046 350.894 218.567 348.609 218.651 344.605L220 280" stroke="#24A2B7" stroke-width="12" stroke-miterlimit="10"/>
<path d="M37.1656 6C22.7265 20.6281 2.51168 59.4712 37.1656 97.8192" stroke="white" stroke-width="12" stroke-linecap="round"/>
<path d="M56.5025 18.6025C46.475 29.2151 32.4365 57.3954 56.5025 85.2165" stroke="white" stroke-width="12" stroke-linecap="round"/>
<path d="M81.5501 29.4048C73.0564 36.5754 61.1651 55.6162 81.5501 74.4142" stroke="white" stroke-width="12" stroke-linecap="round"/>
<path d="M208.058 6C222.497 20.6281 242.712 59.4712 208.058 97.8192" stroke="white" stroke-width="12" stroke-linecap="round"/>
<path d="M188.721 18.6025C198.749 29.2151 212.787 57.3954 188.721 85.2165" stroke="white" stroke-width="12" stroke-linecap="round"/>
<path d="M163.673 29.4048C172.167 36.5754 184.058 55.6162 163.673 74.4142" stroke="white" stroke-width="12" stroke-linecap="round"/>
<path d="M122.612 70.3592C132.834 70.3592 141.122 62.6753 141.122 53.1968C141.122 43.7182 132.834 36.0343 122.612 36.0343C112.389 36.0343 104.102 43.7182 104.102 53.1968C104.102 62.6753 112.389 70.3592 122.612 70.3592Z" stroke="#24A2B7" stroke-width="12" stroke-miterlimit="10"/>
<path d="M125.915 88.3799H119.545L110.58 109.833H134.643L125.915 88.3799Z" fill="#24A2B7" stroke="#24A2B7" stroke-width="12" stroke-linecap="round" stroke-linejoin="round"/>
</svg>
